<svg aria-hidden="true" style="width:0;height:0;position:absolute;overflow:hidden" xmlns="http://www.w3.org/2000/svg"><defs><symbol id="icon-facebook" viewBox="0 0 32 32"><path d="M22.667 4.667a.665.665 0 0 0-.666-.666h-3.333a6.36 6.36 0 0 0-6.667 6v3.6H8.668a.665.665 0 0 0-.666.666v3.467a.665.665 0 0 0 .666.666h3.333v8.933a.665.665 0 0 0 .666.666h4a.665.665 0 0 0 .666-.666V18.4h3.493a.663.663 0 0 0 .653-.494l.96-3.467a.67.67 0 0 0-.641-.84h-4.467v-3.6a1.332 1.332 0 0 1 1.334-1.2h3.333a.665.665 0 0 0 .666-.666V4.666z"/></symbol><symbol id="icon-instagram" viewBox="0 0 32 32"><path d="M16.003 9.847c-3.405 0-6.152 2.747-6.152 6.153s2.747 6.153 6.152 6.153c3.405 0 6.152-2.747 6.152-6.153s-2.747-6.153-6.152-6.153zm0 10.153c-2.201 0-4-1.794-4-4s1.794-4 4-4 4 1.794 4 4-1.799 4-4 4zm7.838-10.405c0 .798-.642 1.435-1.435 1.435a1.435 1.435 0 1 1 1.435-1.435zm4.075 1.457c-.091-1.923-.53-3.626-1.938-5.029-1.403-1.403-3.105-1.842-5.028-1.939-1.981-.112-7.919-.112-9.9 0-1.917.091-3.619.53-5.028 1.933S4.18 9.123 4.084 11.046c-.112 1.982-.112 7.921 0 9.902.091 1.923.53 3.626 1.938 5.029s3.105 1.842 5.028 1.939c1.981.112 7.919.112 9.9 0 1.922-.091 3.625-.53 5.028-1.939 1.403-1.403 1.842-3.106 1.938-5.029.112-1.981.112-7.915 0-9.897zm-2.56 12.022a4.048 4.048 0 0 1-2.281 2.281c-1.579.627-5.327.482-7.073.482s-5.499.139-7.073-.482a4.051 4.051 0 0 1-2.281-2.281c-.626-1.58-.482-5.329-.482-7.074s-.139-5.5.482-7.074a4.048 4.048 0 0 1 2.281-2.281c1.579-.627 5.327-.482 7.073-.482s5.499-.139 7.073.482a4.051 4.051 0 0 1 2.281 2.281c.626 1.58.482 5.329.482 7.074s.145 5.5-.482 7.074z"/></symbol><symbol id="icon-twitter" viewBox="0 0 32 32"><path d="M10.772 26.667a14.762 14.762 0 0 0 14.057-8.931A14.753 14.753 0 0 0 26.025 12a10.765 10.765 0 0 0 1.973-3.787.586.586 0 0 0-.826-.68 2.502 2.502 0 0 1-2.879-.507 5.182 5.182 0 0 0-5.704-1.339 5.19 5.19 0 0 0-1.736 1.112 5.5 5.5 0 0 0-1.533 5.2c-4.467.267-7.533-1.853-9.987-4.76a.574.574 0 0 0-.999.32 12.91 12.91 0 0 0 6.133 13.4 8.971 8.971 0 0 1-5.96 3.04.597.597 0 0 0-.494.494.6.6 0 0 0 .307.627 14.668 14.668 0 0 0 6.453 1.547z"/></symbol></defs></svg>